# xmcd CD database file
#
# Track frame offsets:
#	150
#	22297
#	35813
#	83631
#	93018
#	159253
#	206288
#	223660
#	242210
#	274255
#
# Disc length: 4367 seconds
#
# Revision: 0
# Processed by: cddbd v1.4PL0 Copyright (c) Steve Scherf et al.
# Submitted via: CDex 1.50beta8
#
DISCID=84110d0a
DTITLE=Carlos Santana - the best of
DYEAR=1900
DGENRE=Blues
TTITLE0=Soul sacriface
TTITLE1=Jingo
TTITLE2=Fried Neckbone and some home fries
TTITLE3=Let's get ourselves together
TTITLE4=Santana jam
TTITLE5=La puesta del sol
TTITLE6=As the years go by
TTITLE7=With a little help from my friends
TTITLE8=Every day I have the blues
TTITLE9=El corazon manda
EXTD=
EXTT0=
EXTT1=
EXTT2=
EXTT3=
EXTT4=
EXTT5=
EXTT6=
EXTT7=
EXTT8=
EXTT9=
PLAYORDER=
